<svg xmlns="http://www.w3.org/2000/svg" viewBox="0 0 942.02 90.8"><defs><style>.cls-1{fill:#094;}</style></defs><title>アセット 4</title><g id="レイヤー_2" data-name="レイヤー 2"><g id="レイヤー_1-2" data-name="レイヤー 1"><path class="cls-1" d="M23.12,35.54a29.38,29.38,0,0,1,6.82.8A34,34,0,0,1,37.15,39v7.44a34,34,0,0,0-7-3.13,22.89,22.89,0,0,0-6.69-1,17,17,0,0,0-7.88,1.8,13.19,13.19,0,0,0-5.47,5.09,14.75,14.75,0,0,0,0,14.64,13,13,0,0,0,5.45,5,17.33,17.33,0,0,0,7.91,1.77,21.08,21.08,0,0,0,6.43-1,46.39,46.39,0,0,0,7.72-3.48v7.44a35.82,35.82,0,0,1-7.33,3,31,31,0,0,1-7.79.88A25.25,25.25,0,0,1,10.93,75a19.28,19.28,0,0,1-8-7.43A20.16,20.16,0,0,1,0,56.9,20.89,20.89,0,0,1,3,45.8a20.19,20.19,0,0,1,8.26-7.59A25.84,25.84,0,0,1,23.12,35.54Z"/><path class="cls-1" d="M58,49.11a16.81,16.81,0,0,1,7.77,1.79,13,13,0,0,1,5.39,5A14,14,0,0,1,73,63.2a14.71,14.71,0,0,1-1.83,7.44,12.84,12.84,0,0,1-5.39,5A16.76,16.76,0,0,1,58,77.53a16.59,16.59,0,0,1-7.82-1.85,12.89,12.89,0,0,1-5.34-5A14.71,14.71,0,0,1,43,63.2a14,14,0,0,1,1.94-7.34,13.11,13.11,0,0,1,5.39-5A16.56,16.56,0,0,1,58,49.11ZM50.52,63.2a10,10,0,0,0,2,6.55,6.61,6.61,0,0,0,5.38,2.45,6.92,6.92,0,0,0,5.53-2.35q2-2.34,2-6.71a9.31,9.31,0,0,0-2-6.43,7.06,7.06,0,0,0-5.52-2.27,6.7,6.7,0,0,0-5.34,2.4A9.51,9.51,0,0,0,50.52,63.2Z"/><path class="cls-1" d="M86.55,36.07V77H79.34V36.07Z"/><path class="cls-1" d="M107.84,49.11a16.76,16.76,0,0,1,7.76,1.79,13,13,0,0,1,5.39,5,14,14,0,0,1,1.9,7.29,14.71,14.71,0,0,1-1.83,7.44,12.79,12.79,0,0,1-5.39,5,17.49,17.49,0,0,1-15.66,0,12.89,12.89,0,0,1-5.34-5,14.71,14.71,0,0,1-1.83-7.44,13.94,13.94,0,0,1,1.93-7.34,13.17,13.17,0,0,1,5.39-5A16.58,16.58,0,0,1,107.84,49.11ZM100.39,63.2a10,10,0,0,0,2,6.55,6.61,6.61,0,0,0,5.38,2.45,6.92,6.92,0,0,0,5.53-2.35q2-2.34,2-6.71a9.31,9.31,0,0,0-2-6.43,7.06,7.06,0,0,0-5.52-2.27,6.67,6.67,0,0,0-5.33,2.4A9.46,9.46,0,0,0,100.39,63.2Z"/><path class="cls-1" d="M144.65,49.11a6.62,6.62,0,0,1,2.82.64,16,16,0,0,1,3.24,2.17l-2.58,6.3q-3.13-2.34-5-2.34a5.37,5.37,0,0,0-3.29,1.24,8.8,8.8,0,0,0-2.61,3.3,9.48,9.48,0,0,0-1,4.1V77H129V49.64h7.21v7h.12a18.78,18.78,0,0,1,3.95-5.73A6.44,6.44,0,0,1,144.65,49.11Z"/><path class="cls-1" d="M164.07,42.37h.59v7.27H174v5.45h-9.37V67.71a4.11,4.11,0,0,0,1.11,3,4.07,4.07,0,0,0,3,1.14,12.32,12.32,0,0,0,5.8-1.81V75.8a18.18,18.18,0,0,1-7.33,1.73A9.93,9.93,0,0,1,160.07,75a9.08,9.08,0,0,1-2.59-6.83V55.09H153.2V53.91Z"/><path class="cls-1" d="M186.92,36.07v17.4h.18a10.43,10.43,0,0,1,8.41-4.36,9.16,9.16,0,0,1,7,2.87,10.6,10.6,0,0,1,2.66,7.5V77H198V60.86a6.79,6.79,0,0,0-1.31-4.38,4.3,4.3,0,0,0-3.56-1.63,5.57,5.57,0,0,0-3.09.94,13.69,13.69,0,0,0-3.15,3.1V77h-7.21V36.07Z"/><path class="cls-1" d="M215.84,49.64l6.47,14.7,6.56-14.7h7.74L217.71,90.8H210L218.68,72,208,49.64Z"/><path class="cls-1" d="M262.81,64.19c-3.13,7.09-6.65,10.34-11.16,10.34-6.27,0-10.78-6.38-10.78-15.24a23.59,23.59,0,0,1,6-16c4.62-5.06,11.11-7.7,18.91-7.7,13.2,0,21.78,8,21.78,20.4,0,9.52-4.95,17.11-13.36,20.51a35.58,35.58,0,0,1-8.63,2.31,17.65,17.65,0,0,0-3.36-6.43c5.06-.66,8.36-1.54,10.94-3a15.4,15.4,0,0,0,7.65-13.75,13.63,13.63,0,0,0-6.77-12.21,12,12,0,0,0-5.55-1.65A79.49,79.49,0,0,1,262.81,64.19ZM254.73,44.5a18.41,18.41,0,0,0-7.48,14.85c0,4.51,1.92,8.08,4.34,8.08,1.82,0,3.69-2.31,5.67-7a72.44,72.44,0,0,0,4.56-18.59A13.93,13.93,0,0,0,254.73,44.5Z"/><path class="cls-1" d="M319.25,69.15a21.57,21.57,0,0,1-.57,6.12c-.65,2.52-3.24,4.18-6.63,4.18a22.45,22.45,0,0,1-13.6-5.11,10.59,10.59,0,0,1-4-8.14c0-3.39,2.24-7.2,6.2-10.66a38.66,38.66,0,0,1,10.51-6.12l-.07-11.09c-.58,0-.58,0-2.95.15-1.08.07-2.09.07-3.89.07-1.08,0-3.1-.07-4-.07s-1.59-.08-1.8-.08a12.27,12.27,0,0,0-1.52.08l-.07-8.07a44.38,44.38,0,0,0,8.72.65c.72,0,1.51,0,2.52-.07,1.72-.07,2.08-.07,2.88-.07V26.16a49.22,49.22,0,0,0-.44-8.28h9a43.18,43.18,0,0,0-.44,7.85v4.61a79.72,79.72,0,0,0,13.9-2.74l.29,8.07c-1.3.21-2.67.43-7.63,1.29-2.38.44-3.82.65-6.56.94v9.36a50,50,0,0,1,14.69-2c12,0,20.6,7.34,20.6,17.56a16,16,0,0,1-16.35,16.42c-5.83,0-9.94-2.81-11.81-8-.93-2.45-1.22-4.82-1.22-9.22a30.38,30.38,0,0,0,8-3.17,25.74,25.74,0,0,0-.14,3.17c0,3,.28,5,1,6.34a5,5,0,0,0,4.54,2.45c4.25,0,7.27-3.39,7.27-8,0-6.19-5-10.22-12.74-10.22A45.94,45.94,0,0,0,319.18,55Zm-8.13-11.59c-5.4,2.88-8.57,6-8.57,8.64,0,1.22.72,2.3,2.38,3.31a8.65,8.65,0,0,0,4.6,1.59c1.23,0,1.59-.65,1.59-3ZM351,43a61.58,61.58,0,0,0-14.4-15.55l6.77-4.54a61.22,61.22,0,0,1,14.25,14.76Z"/><path class="cls-1" d="M364.66,28.47a31.44,31.44,0,0,0,5.76.36h12.17a37.36,37.36,0,0,0,5.76-.29v7.34a51.36,51.36,0,0,0-5.48-.21H370.42a42.25,42.25,0,0,0-5.76.29Zm2.23,54.36c.21-2.23.36-4.68.36-7v-11a42.27,42.27,0,0,0-.29-5.54,52.36,52.36,0,0,0,5.62.21h10.29a37.92,37.92,0,0,0,4.9-.21,41.9,41.9,0,0,0-.22,5.18V76.78a39,39,0,0,0,.29,5h-6.77V79.45h-7.2v3.38ZM367,18.39a32.45,32.45,0,0,0,5.84.36h9.21a32.81,32.81,0,0,0,5.83-.36v7a43.71,43.71,0,0,0-5.83-.29h-9.21a46,46,0,0,0-5.84.29Zm.22,20.88a27.41,27.41,0,0,0,4.53.21h11a32.44,32.44,0,0,0,4.39-.21V46a34.18,34.18,0,0,0-4.39-.22h-11a35.12,35.12,0,0,0-4.53.22Zm0,10.08a26.18,26.18,0,0,0,4.53.22h11a24,24,0,0,0,4.46-.22v6.77a35.87,35.87,0,0,0-4.53-.22h-11a26.15,26.15,0,0,0-4.46.22Zm6.48,23.76h7.42V65.33h-7.42Zm21.1-22.46a43.22,43.22,0,0,0-5.48.28V43.52a37.82,37.82,0,0,0,5.84.36h9.14a34.13,34.13,0,0,0,5-.29v7.27c-1.51-.14-2.73-.21-4.32-.21h-1.58V66.34c2.88-.86,4.32-1.29,8.49-2.66l.15,6.91a149.69,149.69,0,0,1-19.88,6c-.86.21-1.44.36-2.44.65l-1.44-7.93a52.21,52.21,0,0,0,7.77-1.22V50.65ZM425.72,29a35.8,35.8,0,0,0,5.11-.36v7.92a65.39,65.39,0,0,0-7.78-.43h-5.4c.36,12.46,1.52,21,3.46,27.15,1.44,4.39,3.38,8.28,4.1,8.28.22,0,.44-.36.58-1.15.21-1.59.5-5.48.58-8.21a23,23,0,0,0,6,4.39c-.57,6.12-1.15,9.07-2.16,11.3s-2.66,3.53-4.68,3.53c-4.17,0-8.71-6.26-11.59-15.91-2.3-7.71-3.46-16.56-3.89-29.38H397.92a64.38,64.38,0,0,0-7.77.43V28.61c2.23.22,4.75.36,7.85.36h11.88l-.22-8a22.89,22.89,0,0,0-.29-3.82h8.28a41.29,41.29,0,0,0-.29,6.41c0,2.09,0,2.52.08,5.4h6.91a44.54,44.54,0,0,0-6.91-8.57l5.18-4a41.73,41.73,0,0,1,7.56,8.71Z"/><path class="cls-1" d="M453.46,19.61c-.44,2.09-.58,4.18-.87,9.72-.29,6.7-.72,21.32-.72,26.43,0,6.84.43,9.43,1.87,11.59,1.66,2.38,5.12,3.75,9.65,3.75,7.78,0,14-4.4,17.43-12.32a48.35,48.35,0,0,0,3.31-12.09c3.89,3.16,5.18,4,8.71,5.54-2.88,9.72-5,14.4-8.57,18.36-5.4,6.12-12.52,9.15-21.6,9.15-5,0-9.57-1.16-12.6-3.17-5-3.31-7.06-8.86-7.06-18.51,0-3.74.15-10.94.58-29,.07-2.16.07-3.67.07-4.68a36.77,36.77,0,0,0-.28-4.89Z"/><path class="cls-1" d="M549.12,45.6a13.51,13.51,0,0,0-1.54,2.69,40.17,40.17,0,0,1-13.47,16.06,18.23,18.23,0,0,0-5.5-4.45,27.82,27.82,0,0,0,9.07-7.76c.77-1.1,1.1-1.59,2.09-3.24-.88.16-1.27.22-2.09.33-5.55.66-11.22,1.37-16.94,2.2V63.8a25.52,25.52,0,0,0,.22,4.73c.39,2.15,2.15,2.75,7.76,2.75a61.07,61.07,0,0,0,16.88-2.14l.33,7.42c-1.49.06-1.93.06-3.36.22a122.16,122.16,0,0,1-13.63.93,38.2,38.2,0,0,1-9.79-.93,7.16,7.16,0,0,1-4.73-5.06c-.5-1.7-.55-2.53-.55-6.93V52.2l-5.17.66a33,33,0,0,0-6.11,1l-.71-6.82a12.4,12.4,0,0,0,1.32.06,43.63,43.63,0,0,0,4.84-.39l5.83-.71V38.5a27.76,27.76,0,0,0-.33-5.22h7.59a26.37,26.37,0,0,0-.33,5.11v6.93l20-2.42c2.92-.33,3-.38,4.24-.93Z"/><path class="cls-1" d="M562.63,45.38a63.27,63.27,0,0,1,5.39,13l-6.21,2a54.91,54.91,0,0,0-5-13.31Zm31.57.38a11.63,11.63,0,0,0-.77,2.81c-1.6,7.48-4.07,13.53-7.59,18.31-4.07,5.56-8.64,9.13-16.77,13.25a20,20,0,0,0-4.4-5.44A35.25,35.25,0,0,0,574,69.63c6.44-4.67,10.12-10.28,12.49-19.08a24.65,24.65,0,0,0,1-6.33Zm-19.86-2.64a54.24,54.24,0,0,1,5.34,12.65l-6.11,1.93a60.22,60.22,0,0,0-5-12.93Z"/><path class="cls-1" d="M606.77,79.47a37.51,37.51,0,0,0,.33-6.15V38.07a35.27,35.27,0,0,0-.33-5.61h7.53a36.8,36.8,0,0,0-.22,5.77V48.46a161.31,161.31,0,0,1,25,11.6l-3.85,6.49c-4.57-3.13-10.28-6.27-19.47-10.5a17.92,17.92,0,0,1-1.87-.94,27.6,27.6,0,0,1,.22,3.74V73.37c0,2.86.06,4.29.22,6.1Z"/><path class="cls-1" d="M663.78,38.23a24.38,24.38,0,0,0-1.32-5.17l7.25-1.15a39.59,39.59,0,0,0,.66,5.17l.88,4.78L682.86,40a27.25,27.25,0,0,0,5.28-1.21l1.15,6.6a46.29,46.29,0,0,0-5.28.72L672.41,48l1.65,9L687,55a49.56,49.56,0,0,0,5.72-1.27l1.21,6.6a13.7,13.7,0,0,0-2.53.28,4,4,0,0,0-.88.11l-2.2.33-13.09,2.09,2,10.67a31.65,31.65,0,0,0,1.32,5.66l-7.37,1.32a40.88,40.88,0,0,0-.71-5.78l-2-10.83-13.58,2.15a44.26,44.26,0,0,0-5.61,1.21l-1.1-6.77a33.4,33.4,0,0,0,5.83-.55L667.35,58l-1.65-9L655.47,50.6a58.75,58.75,0,0,0-6.05,1.27l-1.1-6.77a50,50,0,0,0,6-.6l10.23-1.6Z"/><path class="cls-1" d="M710.58,46a17.59,17.59,0,0,0-1-4.13l6.54-1a22.09,22.09,0,0,0,.55,4.24l.83,4.23,16.44-2.75a14,14,0,0,0,3.63-.93l3.85,3.46A12.46,12.46,0,0,0,740,51.81a31.2,31.2,0,0,1-10.83,14.3,15.5,15.5,0,0,0-5.12-3.9,25.84,25.84,0,0,0,9.35-9.85,15.7,15.7,0,0,1-2,.39l-12.93,2.14,3.91,20.35a21.5,21.5,0,0,0,1,4.45l-6.87,1.21a22.85,22.85,0,0,0-.44-4.45l-3.74-20.51-4.73.77a28.52,28.52,0,0,0-4.84,1.21l-1.15-6.27a30.83,30.83,0,0,0,5.22-.5l4.57-.77Z"/><path class="cls-1" d="M747.9,70.4a52.3,52.3,0,0,0,16.28-4.07,36.72,36.72,0,0,0,16.33-13.47,46,46,0,0,0,5.61-11A23.63,23.63,0,0,0,792,47.25c-4.68,10.06-9.9,16.55-17.43,21.56-5.61,3.73-12.43,6.43-21,8.24a20.34,20.34,0,0,0-3.63.94Zm4.67-34.15a77.77,77.77,0,0,1,14.19,10.61l-4.73,6A57.43,57.43,0,0,0,748,41.7Z"/><path class="cls-1" d="M794.49,59.4c1.59-.88,4.45-4.12,11.82-13.36a18.47,18.47,0,0,1,4.12-4.34,7,7,0,0,1,3.74-1.05c2.75,0,4,.88,8.2,5.61A182.93,182.93,0,0,0,840.18,63.8,39.67,39.67,0,0,0,845.41,68l-3.47,7.54a291.71,291.71,0,0,1-23.26-23.27c-3.52-3.85-3.52-3.85-4.45-3.85s-1.1.17-3.36,3.19S804,60.34,801,63.86c-.88,1-1.1,1.32-1.87,2.31Zm47.07-16.94a6.35,6.35,0,1,1-6.38-6.32A6.38,6.38,0,0,1,841.56,42.46Zm-9.95,0a3.6,3.6,0,1,0,3.57-3.57A3.56,3.56,0,0,0,831.61,42.46Z"/><path class="cls-1" d="M847.56,52.09a54.17,54.17,0,0,0,8.91.38h29.31a54.24,54.24,0,0,0,8.91-.38v7.64c-2.2-.27-2.81-.27-9-.27h-29.2c-6.16,0-6.76,0-9,.27Z"/><path class="cls-1" d="M898,70.4a52.3,52.3,0,0,0,16.28-4.07,36.78,36.78,0,0,0,16.33-13.47,46,46,0,0,0,5.61-11A23.63,23.63,0,0,0,942,47.25c-4.68,10.06-9.9,16.55-17.44,21.56-5.61,3.73-12.42,6.43-21,8.24A20.34,20.34,0,0,0,900,78Zm4.67-34.15a77.77,77.77,0,0,1,14.19,10.61l-4.73,6a57.43,57.43,0,0,0-14-11.16Z"/><circle class="cls-1" cx="319.13" cy="5" r="5"/><circle class="cls-1" cx="395.13" cy="5" r="5"/><circle class="cls-1" cx="463.13" cy="5" r="5"/></g></g></svg>